<svg width="1440" height="272" viewBox="0 0 1440 272" fill="none" xmlns="http://www.w3.org/2000/svg">
<path d="M1440 272V195.011H1436.35V145.649H1429.78V133.055H1413.24V101.365H1402.3V80.6453H1408.14V75.9731H1368.73V44.8932H1357.05V32.5019H1360.95V12.1882L1352.92 7.31292L1342.95 12.3913V32.705H1347.32V44.8932H1337.11V23.3607H1308.89V44.8932H1301.84V165.353H1261.95V208.418H1251.49V218.981H1231.3V177.135V173.479H1226.19V163.931H1208.92V173.276H1201.62V168.4H1198.22V162.509L1190.68 158.853L1183.87 161.697L1178.03 158.853L1171.7 161.087V173.682H1168.54V219.591H1164.41V195.824H1159.05V145.446H1152.73V134.476H1129.38V145.649H1105.54V223.653H1094.6V195.214H1090.22V145.446H1082.43V134.68H1075.38V127.164L1069.3 124.523L1061.76 127.367V133.055H1053.73V145.446H1039.62V148.29H1033.78V173.479H1028.68V43.065H1020.41V37.5803H1001.43V23.3607H990.73V14.6258L981.974 10.7662L973.217 14.4227V19.7043H964.703V38.7991H955.217V119.241H936.487V132.242H921.649V116.6L887.109 133.867H878.839V179.37H861.082V184.042H851.352V193.996H844.785V184.651H823.379V218.981H818.271V173.885H814.622V145.649H810.487V125.335L803.677 117.819V104.209L797.352 101.568L790.298 104.819V117.819L785.433 125.538V112.131H760.866V125.335H757.46V173.479H753.568V194.808H748.46V173.479H745.785V145.446H739.217V135.086H715.134V145.446L691.296 145.243V159.259L687.161 161.494V173.479H674.999V73.9417H669.161V56.6751H646.053V73.7386H621.972V175.307H613.945V104.412H616.134V99.7401H607.378V84.5049H597.891V75.1606L588.161 71.5041L579.405 74.9574V84.5049H567.242V100.35H548.513V104.615H539.756V183.636H534.405V145.243H524.918V138.336H528.567V127.164L521.999 124.117L514.702 127.164V138.336H518.351V145.446H509.594V132.242H500.107V76.3794H474.81V58.5034H450.729V76.3794H446.594V91.2084H430.297V107.256H426.162V28.0329H410.351V7.92233L400.621 0L391.378 7.92233V28.236H376.54V33.5176H369.486V218.981H334.459V173.885H329.351V94.0523H322.54V89.9895H308.432V73.1292H300.162V63.8873L293.837 60.0277L287.27 63.8873V75.3637H279.973V90.3958H270V226.497H263.919V176.932H265.378V173.479H259.54V164.134H241.297V173.479H231.081V163.627C231.081 163.627 230.23 158.853 223.906 158.853C217.582 158.853 216.852 162.001 216.852 162.001C216.852 162.001 215.636 159.056 209.189 159.056C203.594 159.056 203.108 163.627 203.108 163.627V173.682H198.973V176.526H201.162V248.233H193.865V176.526H196.054V173.682H190.459V163.728H172.702V172.463H161.757V162.306C161.757 162.306 160.54 159.056 154.946 159.056C149.96 159.056 148.135 162.306 148.135 162.306C148.135 162.306 147.162 158.954 141.447 158.954C137.068 158.954 135 162.103 135 162.103V173.479H132.081V219.184H126.973V82.4735H128.919V78.2076H120.892V62.363H92.9188V78.0045H64.7026V219.184H52.5405V148.493H54.4864V145.243H47.6756V133.461H26.5135V145.243H17.2702V138.539H19.7027V127.164L13.3784 123.913L5.59458 127.57V138.742H8.02701V145.446H0V271.797H1439.75" fill="#000384"/>
</svg>
