<svg width="542" height="258" viewBox="0 0 542 258" fill="none" xmlns="http://www.w3.org/2000/svg">
<path fill-rule="evenodd" clip-rule="evenodd" d="M36.368 164.183C33.235 165.752 29.742 166.152 26.414 166.968C19.381 168.693 17.418 175.247 20.589 180.863C21.104 181.775 21.214 183.248 22.562 183.668C23.375 183.94 23.914 184.493 24.207 185.293C25.372 186.516 26.88 187.237 28.29 188.103C29.725 188.099 30.775 188.883 31.759 189.801C34.089 190.912 36.504 191.694 39.12 191.692C41.236 191.958 43.351 191.978 45.467 191.681C51.596 191.008 56.534 187.886 60.805 183.755C73.011 171.948 80.359 157.104 86.902 141.731C92.43 128.745 97.467 115.563 102.473 102.379C107.085 90.2341 112.77 78.6351 118.933 67.2651C122.28 61.0901 126.368 55.3091 130.622 49.6871C130.586 48.5141 131.51 48.1081 132.295 47.5921C133.29 46.2331 134.285 44.8731 135.279 43.5141C136.01 42.3521 136.826 41.2761 138.132 40.6951C140.259 38.5681 142.387 36.4411 144.515 34.3131C144.993 33.2231 145.744 32.4341 146.925 32.1151C147.694 31.7741 148.436 31.4101 148.424 30.3891C149.139 29.8991 149.612 29.0001 150.656 29.0621C154.472 26.3391 158.289 23.6171 162.213 20.8171C158.457 18.9901 154.632 18.1041 150.662 17.7651C150.323 18.0051 150.009 18.0851 149.774 17.6321C141.759 16.0481 133.636 15.6561 125.498 15.4481C123.423 15.8811 121.348 15.8401 119.269 15.4711C116.117 15.2861 113.038 15.7291 110.002 16.5501C109.885 16.8041 109.736 16.8251 109.554 16.6131C99.791 18.2241 90.857 21.8121 82.633 27.3711C78.751 29.9961 74.929 32.6231 71.657 35.9911C70.127 38.2161 68.231 40.0751 66.033 41.6331C63.987 43.2731 62.511 45.4001 61 47.4981C61.096 48.4241 60.456 48.7781 59.764 49.0931C55.333 54.8321 51.144 60.7201 48.363 67.4821C48.606 68.2091 48.155 68.6301 47.676 69.0401C45.2 74.3401 43.286 79.7951 43.072 85.7191C42.786 88.5701 42.745 91.4201 43.099 94.2691C43.288 98.3811 44.599 102.081 47.169 105.314C48.402 105.933 49.294 106.901 49.986 108.073C53.642 110.884 57.674 109.943 61.572 109.001C64.992 108.175 68.017 106.366 70.717 104.074C71.217 103.051 71.902 102.23 73.072 101.942C73.508 100.37 75.039 99.6611 75.856 98.3911C77.066 98.4081 77.356 97.3051 77.843 96.5931C81.616 91.0801 84.851 85.3521 86.81 78.8441C87.834 75.4421 89.124 72.1521 89.456 68.5821C89.302 68.4581 89.261 68.3501 89.331 68.2561C89.395 68.1711 89.457 68.1291 89.52 68.1291C90.835 63.3951 90.772 58.5501 90.581 53.7111C90.517 52.0761 89.352 50.8911 87.947 50.3961C86.313 49.8201 84.976 50.9361 84.018 52.1391C82.114 54.5281 80.874 57.3061 79.757 60.1351C77.525 65.7871 75.87 71.6141 74.752 77.5761C74.513 78.8541 73.979 79.5291 72.984 80.2261C68.542 83.3391 64.418 86.8331 60.803 90.9001C59.986 92.3221 58.912 93.4841 57.422 94.2221C56.8 94.4371 56.491 94.3751 56.265 93.5851C55.405 90.5731 55.765 87.5401 55.962 84.5171C56.558 75.3671 58.652 66.5321 62.347 58.1671C65.502 51.0241 69.932 44.7921 76.787 40.5541C81.897 37.3961 89.625 37.7061 94.161 41.5621C96.379 43.4471 96.73 46.3731 97.998 48.7891C98.862 49.9411 98.951 51.2371 98.708 52.5961C99.414 59.4671 99.17 66.3381 98.703 73.2091C99.194 74.1191 98.66 74.7901 98.176 75.4731C96.164 89.1391 90.738 101.131 80.814 110.922C80.542 111.652 80.168 112.259 79.248 112.192C74.864 115.084 70.247 117.182 64.915 117.922C52.64 119.625 42.594 112.443 39.738 100.225C37.874 92.2511 38.558 84.4131 40.605 76.5841C42.334 69.9711 45.364 63.9221 48.436 57.8791C48.897 56.9731 49.724 56.1951 49.507 55.0311C50.093 54.0431 50.414 52.8951 51.28 52.0751C53.708 50.1011 54.814 47.1621 56.477 44.6551C57.097 43.7201 58.503 43.5641 58.543 42.2541C58.467 41.2231 59.351 40.7581 59.842 40.0631C60.616 39.3641 61.633 38.9261 62.139 37.9381C64.123 35.0801 66.443 32.5611 69.446 30.7371C74.054 27.0731 78.708 23.4821 83.807 20.4941C92.285 15.5261 101.334 12.1271 110.98 10.2901C111.525 10.1861 112.048 9.9581 112.581 9.7891C113.017 9.2401 113.524 9.3981 114.04 9.6431C123.053 8.5611 132.047 8.4041 141.082 9.6431C149.995 10.8651 158.608 13.0721 166.763 16.8461C168.532 17.6641 169.924 17.5671 171.578 16.9341C174.936 15.6491 178.373 14.6051 181.977 14.2851C183.206 14.1761 184.614 14.0341 184.961 15.6961C185.299 17.3111 183.883 17.4441 182.866 17.8531C180.409 18.8411 177.947 19.8181 175.459 20.8111C175.475 21.6571 176.266 21.5971 176.805 21.8791C191.257 29.4191 199.564 43.3261 197.112 60.5421C195.654 70.7731 191.228 79.1601 183.808 86.1471C182.984 86.9221 182.237 87.7801 181.454 88.5981C181.204 89.3441 180.844 89.9571 179.907 89.8621C170.563 97.2001 160.033 102.191 148.647 105.4C148.9 106.369 149.585 106.524 150.168 106.803C151.482 107.074 152.255 107.895 152.571 109.177C159.348 118.249 160.091 128.723 159.475 139.46C159.265 143.129 158.642 146.774 158.207 150.432C158.344 153.116 157.878 155.697 156.895 158.19C152.498 174.28 153.26 189.937 160.914 204.979C162.149 207.407 163.688 209.673 165.559 211.685C166.274 211.977 166.889 212.35 166.824 213.268C170.224 217.487 174.041 221.093 179.694 221.988C182.504 222.298 185.315 222.286 188.125 221.986C189.631 221.915 191.175 222.128 192.584 221.365C192.681 221.086 192.814 221.066 192.985 221.308C193.873 221.355 194.77 221.458 195.538 220.845C195.755 220.36 196.07 220.456 196.41 220.698C205.406 219.183 213.979 216.195 222.46 212.987C233.121 208.955 243.613 204.476 254.296 200.508C266.978 195.797 279.921 192.106 293.679 192.678C294.581 192.325 295.472 192.169 296.322 192.818C301.771 193.904 307.31 194.491 312.646 196.206C321.312 198.991 328.957 203.548 336.037 209.158C337.199 209.279 337.748 210.094 338.172 211.049C339.346 212.218 340.522 213.387 341.695 214.556C343.019 215.352 344.293 216.19 344.535 217.903C346.447 220.439 348.625 222.78 350.363 225.856C342.248 223.481 334.664 219.989 326.316 219.489C323.836 219.22 321.357 219.185 318.877 219.51C314.383 219.824 310.336 221.358 306.873 224.223C306.299 224.699 305.334 224.409 305.103 225.31C304.337 226.307 303.74 227.513 302.246 227.597C302.025 227.772 301.793 227.932 301.59 228.124C298.262 231.282 298.309 231.251 295.57 227.395C293.863 224.991 292.363 222.377 289.778 220.725C289.035 219.529 287.518 218.911 287.254 217.356C282.877 212.582 277.877 208.829 271.316 207.638C268.676 207.579 266.038 207.639 263.399 207.594C256.905 207.893 250.876 210.133 244.843 212.214C230.819 217.052 217.893 224.513 203.916 229.497C198.421 231.457 192.838 233.054 187.181 234.431C186.891 234.822 186.557 234.791 186.2 234.535C182.565 234.997 178.912 235.076 175.255 235.075C174.739 235.387 174.238 235.503 173.788 234.962C168.634 234.006 163.687 232.579 158.996 230.062C154.208 227.494 150.595 223.658 146.725 220.057C145.984 219.802 145.375 219.44 145.463 218.509C142.553 215.146 140.587 211.158 138.16 207.475C137.561 207.119 137.329 206.593 137.44 205.911C134.09 198.89 131.622 191.606 129.921 183.979C127.9 174.921 129.143 166.22 131.468 157.501C133.543 149.717 137.074 142.468 139.741 134.905C141.926 128.709 144.781 122.698 145.547 116.057C145.541 114.17 145.529 112.283 145.556 110.395C145.118 108.806 144.893 107.049 142.729 106.829C141.611 106.366 140.379 106.943 139.265 106.448C137.703 106.128 136.117 105.893 134.586 105.464C133.125 105.054 131.607 104.452 131.321 102.722C131.022 100.917 132.039 99.6911 133.57 98.8541C134.709 98.5171 135.851 98.5551 136.994 98.8301C140.703 99.9411 143.942 102.857 148.21 101.815C151.073 101.117 154.058 100.612 155.868 97.8571C157.757 96.5411 158.951 94.4371 161.013 93.3181C167.925 84.3901 172.607 74.4691 175.526 63.5071C177.446 56.2981 178.499 49.1421 178.123 41.7591C177.844 36.2671 176.549 31.0421 172.727 26.8121C169.27 22.9851 167.731 22.9371 163.873 26.3351C163.458 26.7001 163.101 27.1301 162.717 27.5291C161.285 29.0981 160.005 30.8271 158.111 31.9101C151.933 38.4141 147.874 46.2441 144.459 54.3891C139.149 67.0551 135.279 80.2281 131.272 93.3451C126.429 109.199 121.41 125.014 114.982 140.289C112.082 147.181 108.345 153.791 104.205 160.128C100.799 165.342 96.741 169.993 92.837 174.791C92.091 176.41 90.943 177.623 89.274 178.307C83.866 182.833 78.377 187.195 71.991 190.37C66.867 192.917 61.491 194.464 55.941 195.583C54.736 195.827 53.52 196.018 52.309 196.232C47.924 196.577 43.538 196.564 39.152 196.239C30.457 195.181 23.027 191.36 16.38 185.824C15.88 185.12 15.016 184.635 15.039 183.612C8.97602 175.42 8.38802 165.957 9.62602 156.466C10.473 149.97 13.869 144.007 19.181 140.15C23.14 137.273 28.311 136.441 33.242 138.741C38.183 141.047 40.397 145.256 40.806 150.472C41.139 154.708 40.442 158.786 38.111 162.461C38.045 163.554 37.482 164.146 36.368 164.183Z" fill="white"/>
<path fill-rule="evenodd" clip-rule="evenodd" d="M462.948 164.634C464.245 164.599 464.323 165.464 464.003 166.314C463.05 168.841 462.189 171.42 460.554 173.628C460.072 174.937 459.277 175.931 457.859 176.29C453.064 179.637 448.267 178.825 443.468 176.297C442.433 176.114 441.769 175.577 441.71 174.459C438.737 170.167 438.681 165.294 438.88 160.362C438.931 159.132 438.892 157.899 438.894 156.667C438.628 156.31 438.589 155.974 438.988 155.679C439.81 151.749 440.519 147.788 441.48 143.892C443.509 135.679 446.093 127.634 449.044 119.704C450.62 115.469 451.999 111.16 453.513 106.9C454.12 105.194 453.929 103.586 452.536 102.517C451.024 101.357 449.735 102.496 448.567 103.49C448.385 104.031 448.073 104.401 447.44 104.357C444.092 107.894 441.549 111.9 439.333 116.281C433.12 128.558 430.22 141.806 427.21 155.047C427.003 155.956 427.056 156.924 426.985 157.864C427.2 160.724 426.467 163.622 427.327 166.457C428.741 167.776 430.013 166.705 431.567 165.944C430.528 169.535 429.76 172.86 427.561 175.612C427.006 177.349 425.836 178.475 424.129 179.068C418.443 181.711 413.662 181.078 409.49 177.491C408.408 176.56 408.738 174.659 407.004 174.385C406.238 171.591 405.108 168.852 405.717 165.85C405.916 162.217 406.113 158.584 406.311 154.95C406.022 154.597 405.993 154.264 406.383 153.961C407.795 148.077 408.957 142.138 410.613 136.305C412.593 129.327 415.213 122.578 417.547 115.728C419.766 109.222 422.867 103.086 425.176 96.626C425.102 95.784 425.397 95.065 425.916 94.423C427.455 92.262 428.787 89.997 431.994 89.861C436.65 89.665 441.271 89.408 445.678 91.318C446.248 91.565 447.086 91.914 446.778 92.722C445.604 95.803 447.432 94.265 448.378 93.746C453.952 90.685 459.644 89.117 465.771 92.136C467.654 92.495 468.75 93.682 469.279 95.467C469.937 96.983 470.597 98.498 471.338 100.198C472.645 99.128 473.873 98.123 475.1 97.119C475.446 96.529 475.752 95.881 476.627 96.039C479.975 94.26 483.344 92.533 486.998 91.445C488.08 90.601 489.434 90.757 490.664 90.455C492.777 90.242 494.894 90.371 497.01 90.373C498.26 90.656 499.592 90.661 500.688 91.457C506.051 93.123 508.475 97.133 509.374 102.355C510.296 104.011 509.683 105.812 509.856 107.537C509.856 107.851 509.84 108.167 509.815 108.48C509.614 109.056 509.708 109.73 509.247 110.221C507.573 119.133 504.474 127.615 501.12 135.98C498.468 142.597 495.151 148.949 492.454 155.55C491.239 158.525 489.407 161.358 489.335 164.745C489.831 165.584 489.327 166.558 489.698 167.414C491.948 168.177 493.274 166.645 494.616 165.341C498.223 161.838 500.696 157.466 503.612 153.431C505.721 150.511 507.948 147.677 510.163 144.836C511.056 143.69 512.265 142.977 513.628 143.895C514.917 144.763 515.331 146.224 514.884 147.688C514.48 149.015 513.921 150.354 513.15 151.5C506.959 160.698 501.431 170.454 493.06 177.943C487.847 182.608 478.298 182.065 474.412 177.179C472.814 175.17 472.324 172.832 472.105 170.379C471.367 162.159 473.718 154.446 476.283 146.845C479.537 137.193 483.285 127.705 486.578 118.064C487.935 114.092 489.439 110.063 489.285 105.732C489.125 101.222 485.693 99.455 481.873 101.919C478.805 103.898 477.133 107.049 475.402 110.081C471.099 117.616 468.105 125.709 465.035 133.81C462.443 140.65 460.178 147.49 459.207 154.724C458.834 157.509 458.408 160.355 459.516 163.113C460.323 164.378 461.518 164.769 462.948 164.634Z" fill="white"/>
<path fill-rule="evenodd" clip-rule="evenodd" d="M323.032 153.393C323.792 153.247 323.936 152.15 325.003 152.234C324.011 156.621 321.048 159.898 318.899 163.601C319.047 164.544 318.378 164.869 317.698 165.187C317.366 165.607 317.032 166.028 316.698 166.448C316.725 167.347 316.128 167.741 315.411 168.037C315.024 168.445 314.638 168.853 314.251 169.262C313.269 171.716 311.417 173.336 309.155 174.561C303.53 178.833 297.11 180.096 290.251 179.327C285.26 178.766 282.763 175.475 281.727 170.83C281.202 168.478 281.129 166.129 281.762 163.782C282.763 159.163 283.655 154.526 285.623 150.163C287.165 146.744 289.153 143.591 291.311 140.172C285.74 140.579 279.912 142.291 277.374 134.837C273.585 144.05 269.925 152.95 266.265 161.853C266.494 162.566 266.18 163.062 265.62 163.458C265.265 164 264.676 164.507 264.588 165.089C263.611 171.543 258.89 173.163 253.422 173.843C252.668 173.937 251.893 173.896 251.242 174.386C251.129 174.644 250.989 174.672 250.818 174.438C250.235 174.46 249.651 174.484 249.068 174.506C246.982 174.779 244.897 174.909 242.819 174.434C247.588 163.683 252.372 152.94 257.12 142.179C259.023 137.866 260.853 133.52 262.694 129.179C263.058 128.319 263.586 127.486 263.43 126.478C263.741 125.701 263.756 124.774 264.565 124.251C267.476 117.494 270.394 110.741 273.296 103.98C278.281 92.3651 283.214 80.7271 288.251 69.1331C292.086 60.3051 295.934 51.4771 300.004 42.7561C302.045 38.3841 306.133 36.7641 310.692 36.3401C312.387 36.1831 314.118 36.3951 315.831 36.4471C320.37 36.5861 320.364 36.5861 318.731 40.6761C311.579 58.5961 305.047 76.7641 297.426 94.5001C294.211 101.982 290.497 109.221 286.508 116.318C285.384 118.318 284.276 120.338 282.996 122.238C282.188 123.439 282.418 124.256 283.304 125.226C285.223 127.324 285.635 127.212 287.404 124.921C292.892 117.812 298.486 110.782 304.03 103.716C304.378 103.275 304.663 102.784 304.975 102.318C304.981 101.302 305.832 100.805 306.338 100.097C306.742 99.7721 307.147 99.4481 307.551 99.1221C308.051 97.8531 308.756 96.7921 310.215 96.4931C313.629 93.9291 317.022 91.3801 321.233 90.1341C326.883 88.4631 331.967 89.0241 336.241 93.3881C340.559 97.7951 340.68 103.023 339.005 108.525C338.46 110.312 337.696 112.033 337.032 113.785C336.761 114.385 336.895 115.236 336.001 115.449C334.419 117.161 333.235 119.254 331.23 120.559C328.972 122.031 326.623 123.237 323.886 121.817C321.017 120.328 320.372 117.873 321.056 114.902C320.949 113.429 321.007 112.007 322.275 110.961C324.25 107.865 326.24 104.898 330.138 103.772C331.579 103.355 333.533 101.499 332.771 100.341C331.912 99.0411 329.541 98.3911 327.576 99.1001C326.826 99.3701 326.244 100.101 325.584 100.621C325.137 101.689 324.389 102.436 323.275 102.798L323.396 102.906L323.287 102.786C322.932 103.913 322.182 104.668 321.098 105.108C317.664 109.142 314.231 113.177 310.797 117.212C309.49 120.198 306.916 122.009 304.518 123.985C303.039 125.391 301.788 126.983 300.688 128.698C300.715 129.6 300.108 129.992 299.401 130.305C298.909 130.868 298.436 131.451 297.915 131.987C296.608 133.333 296.886 134.083 298.653 134.725C301.635 135.811 303.032 138.211 303.481 141.248C304.6 148.83 303.336 155.943 299.348 162.535C298.731 163.556 297.774 164.555 298.608 165.884C299.551 167.387 301.155 167.295 302.452 166.924C307.401 165.511 312.337 163.981 316.1 160.145C317.495 158.127 319.098 156.325 321.276 155.116C321.483 154.16 322.071 153.585 323.032 153.393Z" fill="white"/>
<path fill-rule="evenodd" clip-rule="evenodd" d="M464.665 225.81C463.351 228.794 462.558 231.932 461.901 235.111C461.876 236.041 461.924 236.989 461.221 237.742C459.887 239.459 460.846 242.391 458.707 243.447C457.008 244.287 454.822 243.944 452.725 244.913C452.735 241.935 454.002 239.586 454.663 237.111C456.104 231.696 457.683 226.317 459.235 220.931C459.426 220.262 459.663 219.641 459.047 219.11C458.266 218.434 457.633 219.006 457.059 219.464C455.889 220.399 454.518 221.115 453.7 222.449C452.884 223.862 451.821 225.024 450.333 225.753C448.204 230.448 447.249 235.506 445.864 240.428C445.268 242.545 444.663 244.219 441.991 243.813C440.706 243.618 439.284 245.564 438.368 244.2C437.899 243.503 438.985 241.793 439.306 240.524C440.927 234.063 443.644 227.904 444.611 221.262C444.386 220.325 444.396 219.218 443.048 219.087C442.29 218.858 441.511 220.457 440.88 219.215C440.421 218.311 440.489 217.323 441.484 216.452C443.705 214.505 446.285 213.145 448.767 211.62C449.249 211.199 449.724 211.169 450.187 211.65C453.082 213.587 451.933 216.555 452.103 219.772C455.597 216.936 458.183 213.524 461.935 211.626C462.382 211.141 462.937 211.332 463.47 211.381C464.115 211.996 465.413 211.947 465.376 213.257C466.388 215.593 466.036 218.023 465.669 220.885C468.253 218.341 470.517 216.112 472.782 213.882C473.085 213.193 473.401 212.518 474.356 212.684C474.995 212.337 475.635 211.99 476.276 211.642C477.325 211.013 478.237 211.126 478.983 212.141C481.358 214.342 481.085 217.137 480.366 219.795C479.046 224.677 477.442 229.482 475.952 234.317C475.868 234.587 475.669 234.837 475.647 235.106C475.561 236.129 474.946 237.516 475.739 238.09C476.759 238.829 477.444 237.36 478.262 236.833C478.803 236.485 479.266 236.016 479.77 235.594C481.022 237.287 480.663 238.544 479.098 239.673C478.198 240.323 477.436 241.163 476.61 241.918C476.194 242.671 475.729 243.366 474.77 243.481C470.416 245.57 469.551 245.186 468.196 240.561C467.874 240.315 467.874 240.071 468.2 239.828C469.3 233.977 471.376 228.405 473.075 222.725C473.29 222.006 473.298 221.227 473.483 220.496C473.637 219.881 473.592 219.323 473.065 218.982C472.497 218.613 472.002 219.053 471.53 219.342C469.702 220.459 468.384 222.136 466.858 223.587C466.418 224.618 465.67 225.341 464.665 225.81Z" fill="#FEFEFE"/>
<path fill-rule="evenodd" clip-rule="evenodd" d="M393.44 204.879C389.909 202.763 386.047 203.848 382.315 203.774C381.538 203.758 381.415 204.634 381.227 205.264C379.967 209.518 378.715 213.774 377.442 218.024C377.243 218.692 376.924 219.489 378.022 219.423C381.081 219.237 384.288 220.469 387.174 218.533C387.139 217.901 387.524 217.572 388.035 217.331C388.236 217.023 388.541 216.74 388.621 216.402C388.994 214.866 390.184 215.505 390.922 215.689C392.108 215.985 391.367 216.867 391.131 217.495C389.762 221.124 388.848 224.882 387.912 228.635C387.033 229.172 386.168 229.347 385.334 228.551C385.85 223.799 385.588 223.522 380.596 223.508C375.575 223.494 375.576 223.495 374.317 228.198C373.682 230.571 373.026 232.938 372.397 235.313C371.266 239.595 371.657 240.226 375.874 241.008C376.163 244.846 373.222 243.299 371.433 243.675C368.589 244.04 365.747 244.047 362.906 243.67C361.494 243.67 360.084 243.67 358.426 243.67C358.764 242.141 358.721 240.96 360.822 240.55C363.008 240.124 363.814 237.772 364.572 235.851C367.283 228.978 368.953 221.783 370.98 214.698C371.712 212.138 372.406 209.567 373.117 207.001C372.894 206.67 372.849 206.31 373 205.948C373.811 203.98 373.463 202.712 371.059 202.574C370.682 202.552 370.52 202.099 370.332 201.78C371.006 198.348 373.699 198.998 376.049 198.953C381.951 198.579 387.852 198.577 393.752 198.955C395.549 198.955 397.344 198.955 399.354 198.955C398.415 202.356 397.465 205.559 396.672 208.801C396.373 210.029 395.555 209.864 394.734 209.922C393.154 210.036 393.978 208.777 393.718 208.139C393.2 207.088 393.631 205.958 393.44 204.879Z" fill="#FEFEFE"/>
<path fill-rule="evenodd" clip-rule="evenodd" d="M432.627 193.791C434.563 193.447 436.5 193.105 438.682 192.719C436.457 200.287 434.287 207.668 432.118 215.049C432.309 215.867 431.999 216.537 431.497 217.152C429.099 223.198 427.515 229.495 425.845 235.762C425.665 236.432 425.417 237.441 426.099 237.875C426.941 238.412 427.677 237.636 428.345 237.124C428.995 236.625 429.628 236.102 430.322 235.545C431.568 237.289 430.726 238.463 429.683 239.601C428.994 240.86 428.122 241.921 426.675 242.356C425.372 243.138 424.068 243.921 422.765 244.705C422.128 245.206 421.495 245.251 420.872 244.683C420.054 243.748 419.237 242.816 418.421 241.882C417.866 241.002 417.874 240.124 418.429 239.248C421.886 227.339 425.302 215.418 428.857 203.539C429.259 202.193 429.105 200.783 429.771 199.467C430.242 198.535 429.763 197.585 428.49 197.484C425.549 197.248 426.922 195.772 427.617 194.486C429.258 194.046 430.866 193.365 432.627 193.791Z" fill="#FEFEFE"/>
<path fill-rule="evenodd" clip-rule="evenodd" d="M506.215 211.667C509.996 213.623 510.434 214.483 509.408 217.938C509.123 219.394 508.045 220.093 506.818 220.652C504.779 220.391 504.877 218.084 503.343 217.076C501.488 215.858 500.378 215.939 498.986 217.306C497.881 219.717 498.74 221.573 500.578 223.215C501.256 223.821 502.037 224.389 502.318 225.34C502.939 226.045 503.578 226.734 504.175 227.456C507.251 231.165 506.591 236.551 503.03 239.928C499.942 242.859 496.63 244.815 492.243 244.763C487.878 244.712 486.077 242.865 486.386 238.454C486.667 236.822 487.761 235.968 489.234 235.472C491.021 234.823 490.939 236.546 491.595 237.332C493.116 238.545 494.447 240.108 496.642 240.088C497.884 239.847 498.691 239.147 498.962 237.884C498.819 236.892 499.148 235.818 498.452 234.92C498.304 232.852 496.202 232.396 495.204 231.014C493.917 229.234 492.45 227.581 491.061 225.873C490.459 224.771 490.555 223.656 491 222.535C492.598 216.506 496.789 213.229 502.566 211.639C503.788 211.125 505.004 211.07 506.215 211.667Z" fill="#FEFDFE"/>
<path fill-rule="evenodd" clip-rule="evenodd" d="M408.438 211.664C411.417 213.075 411.45 215.53 410.598 218.157C408.918 223.352 407.127 228.512 405.399 233.692C405.129 234.499 404.879 235.324 404.751 236.162C404.661 236.758 404.306 237.538 405.128 237.919C405.714 238.19 406.183 237.763 406.669 237.452C407.599 236.858 408.53 234.912 409.433 235.929C410.679 237.332 409.412 238.824 408.056 239.946C406.189 241.491 404.583 243.328 402.259 244.313C399.693 245.402 397.464 244.293 397.269 241.513C397.146 239.765 397.322 238.063 397.976 236.31C399.912 231.12 401.572 225.826 403.308 220.561C403.57 219.767 403.869 218.832 403.027 218.198C402.244 217.607 401.644 218.444 400.963 218.657C400.356 218.846 399.701 219.994 399.127 218.825C398.732 218.024 398.592 217.127 399.566 216.297C401.853 214.351 404.429 212.931 407.123 211.677C407.557 211.168 407.995 211.165 408.438 211.664Z" fill="#FEFDFE"/>
<path fill-rule="evenodd" clip-rule="evenodd" d="M408.717 197.5C409.731 196.503 410.168 194.927 411.946 194.696C413.151 194.54 414.069 192.305 415.563 194.661C416.92 196.802 418.188 198.655 416.135 200.974C415.039 202.21 413.451 202.753 412.196 203.744C410.88 204.783 410.735 202.944 409.88 202.982C408.793 201.304 407.372 199.696 408.717 197.5Z" fill="#FAFAFC"/>
<path fill-rule="evenodd" clip-rule="evenodd" d="M243.979 104.641L243.979 104.65L243.979 104.676C244.237 105.369 244.461 106.058 243.834 106.686C242.951 108.949 242.068 111.211 241.184 113.474L241.181 113.483L241.177 113.493L241.173 113.502L240.451 115.352C240.242 116.333 239.753 117.165 239.082 117.899C238.847 118.649 238.375 119.178 237.628 119.447C237.412 119.714 237.195 119.981 236.978 120.247L236.977 120.249L236.975 120.251L236.613 120.696C235.032 123.371 232.914 125.509 230.224 127.071C221.672 133.671 212.308 138.403 201.403 139.561C200.336 139.674 200.04 140.336 199.799 141.233C199.663 141.741 199.518 142.247 199.374 142.753C198.87 144.515 198.367 146.277 198.225 148.122C198.16 151.265 197.947 154.399 197.733 157.534L197.733 157.536L197.733 157.539C197.7 158.016 197.668 158.493 197.636 158.97C198.413 167.738 203.717 171.025 213.205 168.474C219.805 166.701 225.285 162.933 230.304 158.423C232.031 156.015 234.106 153.956 236.501 152.216C237.694 151.348 238.477 150.149 239.268 148.937L239.382 148.763C240.803 146.587 242.799 145.093 245.219 144.16C245.672 143.696 246.119 143.686 246.559 144.178C248.616 145.385 248.728 146.814 247.47 148.823C245.15 152.53 242.671 156.113 240.028 159.591C239.965 160.781 239.104 161.285 238.183 161.738C237.878 162.027 237.566 162.31 237.255 162.593C235.854 163.869 234.453 165.145 233.591 166.9C233.338 167.12 233.089 167.345 232.84 167.57C231.878 168.441 230.916 169.311 229.704 169.853C225.629 173.084 221.083 175.593 216.477 177.907C214.61 178.845 212.535 179.37 210.46 179.894L210.46 179.894C209.53 180.13 208.6 180.365 207.689 180.637C207.444 181.073 207.124 181.004 206.779 180.774L206.197 180.817C201.93 181.13 197.664 181.443 193.411 180.587C183.266 178.547 176.497 170.495 175.259 159.137C174.321 150.523 175.484 142.208 178.047 133.95C180.318 126.636 183.384 119.678 187.457 113.286C194.166 102.757 202.392 93.7081 214.999 90.1321C221.594 88.2611 228.213 89.0351 234.621 91.1091C239.327 92.6301 242.29 96.1251 243.862 100.795C244.356 101.271 244.254 101.791 243.971 102.323C243.973 103.095 243.976 103.868 243.979 104.641ZM231.826 105.882C233.849 109.187 232.624 113.034 228.564 116.12L228.562 116.123L228.564 116.121C227.813 118.208 226.206 119.526 224.599 120.844L224.598 120.844C224.208 121.164 223.817 121.485 223.439 121.816L223.44 121.814L223.439 121.815C217.455 126.748 211.32 131.397 202.837 132.777C205.913 126.124 208.958 119.979 213.734 114.854L213.738 114.851C214.002 114.529 214.257 114.198 214.512 113.866C215.652 112.384 216.79 110.904 218.721 110.286L218.723 110.284C220.822 107.733 223.395 106.04 226.784 105.811C226.785 105.811 226.785 105.811 226.786 105.811C228.478 105.026 230.154 105.31 231.826 105.882C231.826 105.882 231.826 105.882 231.826 105.882Z" fill="white"/>
<path fill-rule="evenodd" clip-rule="evenodd" d="M377.928 178.009C383.764 177.287 389.102 175.226 393.752 171.544C395.768 170.907 397.051 169.507 397.843 167.596C398.11 167.076 398.376 166.555 398.643 166.035C399.094 165.154 399.545 164.273 399.997 163.392C400.438 162.878 400.618 162.382 399.899 161.945C399.153 162.207 398.411 162.481 397.669 162.756C395.973 163.382 394.276 164.01 392.538 164.488C390.21 165.128 388.663 163.885 388.581 161.478C388.575 161.3 388.566 161.12 388.557 160.939C388.5 159.82 388.441 158.672 389.126 157.65C389.146 157.554 389.167 157.458 389.189 157.361L389.206 157.283C389.207 157.132 389.196 156.977 389.186 156.823C389.162 156.491 389.139 156.159 389.235 155.866C390.918 150.774 392.611 145.685 394.304 140.596C396.922 132.724 399.54 124.852 402.124 116.969C404.02 111.179 405.651 105.302 404.604 99.1071C403.889 94.8771 402.067 91.2521 398.006 89.2831C391.656 86.2041 385.098 86.6551 378.506 88.4041C369.592 90.7671 362.058 95.6951 354.824 101.175C352.561 102.172 351.002 103.896 349.842 106.026C349.64 106.354 349.434 106.68 349.228 107.006C348.778 107.716 348.328 108.426 347.928 109.162C345.749 113.162 346.34 114.914 350.397 116.62C350.907 117.086 351.444 117.003 351.993 116.701H352.602C353.151 117.004 353.688 117.086 354.2 116.62C359.549 115.476 362.688 112.089 364.399 106.992C365.493 103.737 368.2 102.073 371.405 101.178C373.446 100.443 375.565 100.351 377.684 100.26C378.463 100.226 379.243 100.193 380.018 100.127C385.467 101.939 386.881 103.838 386.252 109.635C385.924 112.654 385.492 115.747 384.115 118.561C383.56 118.977 383.426 119.578 383.293 120.18C383.206 120.572 383.119 120.965 382.914 121.306C383.109 124.662 381.255 126.077 378.191 126.807C367.085 129.452 356.033 132.299 345.933 137.887C341.57 140.303 337.637 143.434 334.66 147.321C331.361 151.626 329.947 156.924 329.986 162.403C330.074 174.394 337.171 181.165 349.562 176.72C353.773 175.211 357.627 173.023 361.482 170.834C362.719 170.131 363.957 169.429 365.207 168.748C365.49 168.84 365.742 168.759 366.002 168.639C367.273 168.055 367.898 167.764 368.22 167.963C368.541 168.162 368.559 168.85 368.615 170.223C368.627 170.519 368.604 170.824 368.58 171.13C368.512 172.023 368.443 172.926 369.246 173.656C370.981 177.42 374.155 178.477 377.928 178.009ZM348.067 158.966C348.524 161.442 349.727 163.591 352.6 164.092C353.418 164.17 354.236 164.118 355.053 164.067C355.934 164.011 356.815 163.955 357.696 164.061C361.234 163.472 364.278 161.769 367.32 160.067C368.551 159.378 369.781 158.69 371.044 158.075C371.894 157.661 372.769 156.699 373.046 155.806C374.708 150.467 376.287 145.102 377.895 139.64C378.395 137.941 378.898 136.232 379.407 134.512C378.591 134.764 377.803 135.001 377.035 135.232C375.452 135.708 373.954 136.159 372.473 136.657C372.173 136.758 371.874 136.859 371.574 136.959C365.455 139.014 359.331 141.069 354.211 145.251C353.356 146.638 352.329 147.846 350.809 148.544C348.213 151.576 347.364 155.138 348.067 158.966Z" fill="white"/>
</svg>
