<?xml version="1.0" encoding="utf-8"?>
<!-- Generator: Adobe Illustrator 16.0.0, SVG Export Plug-In . SVG Version: 6.00 Build 0)  -->
<!DOCTYPE svg PUBLIC "-//W3C//DTD SVG 1.1//EN" "http://www.w3.org/Graphics/SVG/1.1/DTD/svg11.dtd">
<svg version="1.1" xmlns="http://www.w3.org/2000/svg" xmlns:xlink="http://www.w3.org/1999/xlink" x="0px" y="0px"
	 width="541.473px" height="257.987px" viewBox="0 0 541.473 257.987" enable-background="new 0 0 541.473 257.987"
	 xml:space="preserve">
<g id="Layer_1" display="none">
</g>
<g id="Layer_2">
	<path fill-rule="evenodd" clip-rule="evenodd" fill="#FFFFFF" d="M36.368,164.183c-3.133,1.569-6.626,1.969-9.954,2.785
		c-7.033,1.725-8.996,8.279-5.825,13.895c0.515,0.912,0.625,2.385,1.973,2.805c0.813,0.272,1.352,0.825,1.645,1.625
		c1.165,1.223,2.673,1.944,4.083,2.81c1.435-0.004,2.485,0.78,3.469,1.698c2.33,1.111,4.745,1.893,7.361,1.891
		c2.116,0.266,4.231,0.286,6.347-0.011c6.129-0.673,11.067-3.795,15.338-7.926c12.206-11.807,19.554-26.651,26.097-42.024
		c5.528-12.986,10.565-26.168,15.571-39.352c4.612-12.145,10.297-23.744,16.46-35.114c3.347-6.175,7.435-11.956,11.689-17.578
		c-0.036-1.173,0.888-1.579,1.673-2.095c0.995-1.359,1.99-2.719,2.984-4.078c0.731-1.162,1.547-2.238,2.853-2.819
		c2.127-2.127,4.255-4.254,6.383-6.382c0.478-1.09,1.229-1.879,2.41-2.198c0.769-0.341,1.511-0.705,1.499-1.726
		c0.715-0.49,1.188-1.389,2.232-1.327c3.816-2.723,7.633-5.445,11.557-8.245c-3.756-1.827-7.581-2.713-11.551-3.052
		c-0.339,0.24-0.653,0.32-0.888-0.133c-8.015-1.584-16.138-1.976-24.276-2.184c-2.075,0.433-4.15,0.392-6.229,0.023
		c-3.152-0.185-6.231,0.258-9.267,1.079c-0.117,0.254-0.266,0.275-0.448,0.063c-9.763,1.611-18.697,5.199-26.921,10.758
		c-3.882,2.625-7.704,5.252-10.976,8.62c-1.53,2.225-3.426,4.084-5.624,5.642c-2.046,1.64-3.522,3.767-5.033,5.865
		c0.096,0.926-0.544,1.28-1.236,1.595c-4.431,5.739-8.62,11.627-11.401,18.389c0.243,0.727-0.208,1.148-0.687,1.558
		c-2.476,5.3-4.39,10.755-4.604,16.679c-0.286,2.851-0.327,5.701,0.027,8.55c0.189,4.112,1.5,7.812,4.07,11.045
		c1.233,0.619,2.125,1.587,2.817,2.759c3.656,2.811,7.688,1.87,11.586,0.928c3.42-0.826,6.445-2.635,9.145-4.927
		c0.5-1.023,1.185-1.844,2.355-2.132c0.436-1.572,1.967-2.281,2.784-3.551c1.21,0.017,1.5-1.086,1.987-1.798
		c3.773-5.513,7.008-11.241,8.967-17.749c1.024-3.402,2.314-6.692,2.646-10.262c-0.154-0.124-0.195-0.232-0.125-0.326
		c0.064-0.085,0.126-0.127,0.189-0.127c1.315-4.734,1.252-9.579,1.061-14.418c-0.064-1.635-1.229-2.82-2.634-3.315
		c-1.634-0.576-2.971,0.54-3.929,1.743c-1.904,2.389-3.144,5.167-4.261,7.996c-2.232,5.652-3.887,11.479-5.005,17.441
		c-0.239,1.278-0.773,1.953-1.768,2.65c-4.442,3.113-8.566,6.607-12.181,10.674c-0.817,1.422-1.891,2.584-3.381,3.322
		c-0.622,0.215-0.931,0.153-1.157-0.637c-0.86-3.012-0.5-6.045-0.303-9.068c0.596-9.15,2.69-17.985,6.385-26.35
		c3.155-7.143,7.585-13.375,14.44-17.613c5.11-3.158,12.838-2.848,17.374,1.008c2.218,1.885,2.569,4.811,3.837,7.227
		c0.864,1.152,0.953,2.448,0.71,3.807c0.706,6.871,0.462,13.742-0.005,20.613c0.491,0.91-0.043,1.581-0.527,2.264
		c-2.012,13.666-7.438,25.658-17.362,35.449c-0.272,0.73-0.646,1.337-1.566,1.27c-4.384,2.892-9.001,4.99-14.333,5.73
		c-12.275,1.703-22.321-5.479-25.177-17.697c-1.864-7.974-1.18-15.812,0.867-23.641c1.729-6.613,4.759-12.662,7.831-18.705
		c0.461-0.906,1.288-1.684,1.071-2.848c0.586-0.988,0.907-2.136,1.773-2.956c2.428-1.974,3.534-4.913,5.197-7.42
		c0.62-0.935,2.026-1.091,2.066-2.401c-0.076-1.031,0.808-1.496,1.299-2.191c0.774-0.699,1.791-1.137,2.297-2.125
		c1.984-2.858,4.304-5.377,7.307-7.201c4.608-3.664,9.262-7.255,14.361-10.243c8.478-4.968,17.527-8.367,27.173-10.204
		c0.545-0.104,1.068-0.332,1.601-0.501c0.436-0.549,0.943-0.391,1.459-0.146c9.013-1.082,18.007-1.239,27.042,0
		c8.913,1.222,17.526,3.429,25.681,7.203c1.769,0.818,3.161,0.721,4.815,0.088c3.358-1.285,6.795-2.329,10.399-2.649
		c1.229-0.109,2.637-0.251,2.984,1.411c0.338,1.615-1.078,1.748-2.095,2.157c-2.457,0.988-4.919,1.965-7.407,2.958
		c0.016,0.846,0.807,0.786,1.346,1.068c14.452,7.54,22.759,21.447,20.307,38.663c-1.458,10.231-5.884,18.618-13.304,25.605
		c-0.824,0.775-1.571,1.633-2.354,2.451c-0.25,0.746-0.61,1.359-1.547,1.264c-9.344,7.338-19.874,12.329-31.26,15.538
		c0.253,0.969,0.938,1.124,1.521,1.403c1.314,0.271,2.087,1.092,2.403,2.374c6.777,9.072,7.52,19.546,6.904,30.283
		c-0.21,3.669-0.833,7.314-1.268,10.972c0.137,2.684-0.329,5.265-1.312,7.758c-4.397,16.09-3.635,31.747,4.019,46.789
		c1.235,2.428,2.774,4.694,4.645,6.706c0.715,0.292,1.33,0.665,1.265,1.583c3.4,4.219,7.217,7.825,12.87,8.72
		c2.81,0.31,5.621,0.298,8.431-0.002c1.506-0.071,3.05,0.142,4.459-0.621c0.097-0.279,0.23-0.299,0.401-0.057
		c0.888,0.047,1.785,0.15,2.553-0.463c0.217-0.485,0.532-0.389,0.872-0.147c8.996-1.515,17.569-4.503,26.05-7.711
		c10.661-4.032,21.153-8.511,31.836-12.479c12.682-4.711,25.625-8.402,39.383-7.83c0.902-0.353,1.793-0.509,2.643,0.14
		c5.449,1.086,10.988,1.673,16.324,3.388c8.666,2.785,16.311,7.342,23.391,12.952c1.162,0.121,1.711,0.936,2.135,1.891
		c1.174,1.169,2.35,2.338,3.523,3.507c1.324,0.796,2.598,1.634,2.84,3.347c1.912,2.536,4.09,4.877,5.828,7.953
		c-8.115-2.375-15.699-5.867-24.047-6.367c-2.48-0.269-4.959-0.304-7.439,0.021c-4.494,0.314-8.541,1.848-12.004,4.713
		c-0.574,0.476-1.539,0.186-1.77,1.087c-0.766,0.997-1.363,2.203-2.857,2.287c-0.221,0.175-0.453,0.335-0.656,0.527
		c-3.328,3.158-3.281,3.127-6.02-0.729c-1.707-2.404-3.207-5.018-5.792-6.67c-0.743-1.196-2.26-1.814-2.524-3.369
		c-4.377-4.774-9.377-8.527-15.938-9.718c-2.64-0.059-5.278,0.001-7.917-0.044c-6.494,0.299-12.523,2.539-18.556,4.62
		c-14.024,4.838-26.95,12.299-40.927,17.283c-5.495,1.96-11.078,3.557-16.735,4.934c-0.29,0.391-0.624,0.36-0.981,0.104
		c-3.635,0.462-7.288,0.541-10.945,0.54c-0.516,0.312-1.017,0.428-1.467-0.113c-5.154-0.956-10.101-2.383-14.792-4.9
		c-4.788-2.568-8.401-6.404-12.271-10.005c-0.741-0.255-1.35-0.617-1.262-1.548c-2.91-3.363-4.876-7.351-7.303-11.034
		c-0.599-0.356-0.831-0.882-0.72-1.564c-3.35-7.021-5.818-14.305-7.519-21.932c-2.021-9.058-0.778-17.759,1.547-26.478
		c2.075-7.784,5.606-15.033,8.273-22.596c2.185-6.196,5.04-12.207,5.806-18.848c-0.006-1.887-0.018-3.774,0.009-5.662
		c-0.438-1.589-0.663-3.346-2.827-3.566c-1.118-0.463-2.35,0.114-3.464-0.381c-1.562-0.32-3.148-0.555-4.679-0.984
		c-1.461-0.41-2.979-1.012-3.265-2.742c-0.299-1.805,0.718-3.031,2.249-3.868c1.139-0.337,2.281-0.299,3.424-0.024
		c3.709,1.111,6.948,4.027,11.216,2.985c2.863-0.698,5.848-1.203,7.658-3.958c1.889-1.316,3.083-3.42,5.145-4.539
		c6.912-8.928,11.594-18.849,14.513-29.811c1.92-7.209,2.973-14.365,2.597-21.748c-0.279-5.492-1.574-10.717-5.396-14.947
		c-3.457-3.827-4.996-3.875-8.854-0.477c-0.415,0.365-0.772,0.795-1.156,1.194c-1.432,1.569-2.712,3.298-4.606,4.381
		c-6.178,6.504-10.237,14.334-13.652,22.479c-5.31,12.666-9.18,25.839-13.187,38.956c-4.843,15.854-9.862,31.669-16.29,46.944
		c-2.9,6.892-6.637,13.502-10.777,19.839c-3.406,5.214-7.464,9.865-11.368,14.663c-0.746,1.619-1.894,2.832-3.563,3.516
		c-5.408,4.526-10.897,8.888-17.283,12.063c-5.124,2.547-10.5,4.094-16.05,5.213c-1.205,0.244-2.421,0.435-3.632,0.649
		c-4.385,0.345-8.771,0.332-13.157,0.007c-8.695-1.058-16.125-4.879-22.772-10.415c-0.5-0.704-1.364-1.189-1.341-2.212
		c-6.063-8.192-6.651-17.655-5.413-27.146c0.847-6.496,4.243-12.459,9.555-16.316c3.959-2.877,9.13-3.709,14.061-1.409
		c4.941,2.306,7.155,6.515,7.564,11.731c0.333,4.236-0.364,8.314-2.695,11.989C38.045,163.554,37.482,164.146,36.368,164.183z"/>
	<path fill-rule="evenodd" clip-rule="evenodd" fill="#FFFFFF" d="M462.948,164.634c1.297-0.035,1.375,0.83,1.055,1.68
		c-0.953,2.527-1.814,5.106-3.449,7.314c-0.482,1.309-1.277,2.303-2.695,2.662c-4.795,3.347-9.592,2.535-14.391,0.007
		c-1.035-0.183-1.699-0.72-1.758-1.838c-2.973-4.292-3.029-9.165-2.83-14.097c0.051-1.23,0.012-2.463,0.014-3.695
		c-0.266-0.357-0.305-0.693,0.094-0.988c0.822-3.93,1.531-7.891,2.492-11.787c2.029-8.213,4.613-16.258,7.564-24.188
		c1.576-4.235,2.955-8.544,4.469-12.804c0.607-1.706,0.416-3.314-0.977-4.383c-1.512-1.16-2.801-0.021-3.969,0.973
		c-0.182,0.541-0.494,0.911-1.127,0.867c-3.348,3.537-5.891,7.543-8.107,11.924c-6.213,12.277-9.113,25.525-12.123,38.766
		c-0.207,0.909-0.154,1.877-0.225,2.817c0.215,2.86-0.518,5.758,0.342,8.593c1.414,1.319,2.686,0.248,4.24-0.513
		c-1.039,3.591-1.807,6.916-4.006,9.668c-0.555,1.737-1.725,2.863-3.432,3.456c-5.686,2.643-10.467,2.01-14.639-1.577
		c-1.082-0.931-0.752-2.832-2.486-3.106c-0.766-2.794-1.896-5.533-1.287-8.535c0.199-3.633,0.396-7.266,0.594-10.9
		c-0.289-0.353-0.318-0.686,0.072-0.989c1.412-5.884,2.574-11.823,4.23-17.656c1.98-6.978,4.6-13.727,6.934-20.577
		c2.219-6.506,5.32-12.642,7.629-19.102c-0.074-0.842,0.221-1.561,0.74-2.203c1.539-2.161,2.871-4.426,6.078-4.562
		c4.656-0.196,9.277-0.453,13.684,1.457c0.57,0.247,1.408,0.596,1.1,1.404c-1.174,3.081,0.654,1.543,1.6,1.024
		c5.574-3.061,11.266-4.629,17.393-1.61c1.883,0.359,2.979,1.546,3.508,3.331c0.658,1.516,1.318,3.031,2.059,4.731
		c1.307-1.07,2.535-2.075,3.762-3.079c0.346-0.59,0.652-1.238,1.527-1.08c3.348-1.779,6.717-3.506,10.371-4.594
		c1.082-0.844,2.436-0.688,3.666-0.99c2.113-0.213,4.23-0.084,6.346-0.082c1.25,0.283,2.582,0.288,3.678,1.084
		c5.363,1.666,7.787,5.676,8.686,10.898c0.922,1.656,0.309,3.457,0.482,5.182c0,0.314-0.016,0.63-0.041,0.943
		c-0.201,0.576-0.107,1.25-0.568,1.741c-1.674,8.912-4.773,17.394-8.127,25.759c-2.652,6.617-5.969,12.969-8.666,19.57
		c-1.215,2.975-3.047,5.808-3.119,9.195c0.496,0.839-0.008,1.813,0.363,2.669c2.25,0.763,3.576-0.769,4.918-2.073
		c3.607-3.503,6.08-7.875,8.996-11.91c2.109-2.92,4.336-5.754,6.551-8.595c0.893-1.146,2.102-1.859,3.465-0.941
		c1.289,0.868,1.703,2.329,1.256,3.793c-0.404,1.327-0.963,2.666-1.734,3.812c-6.191,9.198-11.719,18.954-20.09,26.443
		c-5.213,4.665-14.762,4.122-18.648-0.764c-1.598-2.009-2.088-4.347-2.307-6.8c-0.738-8.22,1.613-15.933,4.178-23.534
		c3.254-9.652,7.002-19.14,10.295-28.781c1.357-3.972,2.861-8.001,2.707-12.332c-0.16-4.51-3.592-6.277-7.412-3.813
		c-3.068,1.979-4.74,5.13-6.471,8.162c-4.303,7.535-7.297,15.628-10.367,23.729c-2.592,6.84-4.857,13.68-5.828,20.914
		c-0.373,2.785-0.799,5.631,0.309,8.389C460.323,164.378,461.518,164.769,462.948,164.634z"/>
	<path fill-rule="evenodd" clip-rule="evenodd" fill="#FFFFFF" d="M323.032,153.393c0.76-0.146,0.904-1.243,1.971-1.159
		c-0.992,4.387-3.955,7.664-6.104,11.367c0.148,0.943-0.521,1.268-1.201,1.586c-0.332,0.42-0.666,0.841-1,1.261
		c0.027,0.899-0.57,1.293-1.287,1.589c-0.387,0.408-0.773,0.816-1.16,1.225c-0.982,2.454-2.834,4.074-5.096,5.299
		c-5.625,4.272-12.045,5.535-18.904,4.766c-4.991-0.561-7.488-3.852-8.524-8.497c-0.525-2.352-0.598-4.701,0.035-7.048
		c1.001-4.619,1.893-9.256,3.861-13.619c1.542-3.419,3.53-6.572,5.688-9.991c-5.571,0.407-11.399,2.119-13.937-5.335
		c-3.789,9.213-7.449,18.113-11.109,27.016c0.229,0.713-0.085,1.209-0.645,1.605c-0.355,0.542-0.944,1.049-1.032,1.631
		c-0.977,6.454-5.698,8.074-11.166,8.754c-0.754,0.094-1.529,0.053-2.18,0.543c-0.113,0.258-0.253,0.286-0.424,0.052
		c-0.583,0.022-1.167,0.046-1.75,0.068c-2.086,0.273-4.171,0.403-6.249-0.072c4.769-10.751,9.553-21.494,14.301-32.255
		c1.903-4.313,3.733-8.659,5.574-13c0.364-0.86,0.892-1.693,0.736-2.701c0.311-0.777,0.326-1.704,1.135-2.227
		c2.911-6.757,5.829-13.51,8.731-20.271c4.985-11.615,9.918-23.253,14.955-34.847c3.835-8.828,7.683-17.656,11.753-26.377
		c2.041-4.372,6.129-5.992,10.688-6.416c1.695-0.157,3.426,0.055,5.139,0.107c4.539,0.139,4.533,0.139,2.9,4.229
		c-7.152,17.92-13.684,36.088-21.305,53.824c-3.215,7.482-6.929,14.721-10.918,21.818c-1.124,2-2.232,4.02-3.512,5.92
		c-0.808,1.201-0.578,2.018,0.308,2.988c1.919,2.098,2.331,1.986,4.1-0.305c5.488-7.109,11.082-14.139,16.626-21.205
		c0.348-0.441,0.633-0.932,0.945-1.398c0.006-1.016,0.857-1.513,1.363-2.221c0.404-0.325,0.809-0.649,1.213-0.975
		c0.5-1.269,1.205-2.33,2.664-2.629c3.414-2.564,6.807-5.113,11.018-6.359c5.65-1.671,10.734-1.11,15.008,3.254
		c4.318,4.407,4.439,9.635,2.764,15.137c-0.545,1.787-1.309,3.508-1.973,5.26c-0.271,0.6-0.137,1.451-1.031,1.664
		c-1.582,1.712-2.766,3.805-4.771,5.11c-2.258,1.472-4.607,2.678-7.344,1.258c-2.869-1.489-3.514-3.944-2.83-6.915
		c-0.107-1.473-0.049-2.895,1.219-3.941c1.975-3.096,3.965-6.063,7.863-7.189c1.441-0.417,3.395-2.273,2.633-3.431
		c-0.859-1.3-3.23-1.95-5.195-1.241c-0.75,0.27-1.332,1.001-1.992,1.521c-0.447,1.068-1.195,1.815-2.309,2.177l0.121,0.108
		l-0.109-0.12c-0.355,1.127-1.105,1.882-2.189,2.322c-3.434,4.034-6.867,8.069-10.301,12.104c-1.307,2.986-3.881,4.797-6.279,6.773
		c-1.479,1.406-2.73,2.998-3.83,4.713c0.027,0.902-0.58,1.294-1.287,1.607c-0.492,0.563-0.965,1.146-1.486,1.682
		c-1.307,1.346-1.029,2.096,0.738,2.738c2.982,1.086,4.379,3.486,4.828,6.523c1.119,7.582-0.145,14.695-4.133,21.287
		c-0.617,1.021-1.574,2.02-0.74,3.349c0.943,1.503,2.547,1.411,3.844,1.04c4.949-1.413,9.885-2.943,13.648-6.779
		c1.395-2.018,2.998-3.82,5.176-5.029C321.483,154.16,322.071,153.585,323.032,153.393z"/>
	<path fill-rule="evenodd" clip-rule="evenodd" fill="#FFFFFF" d="M243.971,102.323c0.002,0.784,0.005,1.569,0.008,2.353
		c0.258,0.693,0.482,1.382-0.145,2.01c-1.127,2.889-2.255,5.777-3.383,8.666c-0.209,0.981-0.698,1.813-1.369,2.547
		c-0.235,0.75-0.707,1.279-1.454,1.548c-0.338,0.417-0.677,0.833-1.015,1.249c-1.581,2.675-3.699,4.813-6.389,6.375
		c-8.552,6.6-17.916,11.332-28.821,12.49c-1.067,0.113-1.363,0.775-1.604,1.672c-0.61,2.278-1.391,4.514-1.574,6.889
		c-0.075,3.623-0.347,7.234-0.589,10.848c0.777,8.768,6.081,12.055,15.569,9.504c6.6-1.773,12.08-5.541,17.099-10.051
		c1.727-2.408,3.802-4.467,6.197-6.207c1.25-0.91,2.05-2.183,2.881-3.453c1.421-2.176,3.417-3.67,5.837-4.603
		c0.453-0.464,0.9-0.474,1.34,0.018c2.057,1.207,2.169,2.636,0.911,4.645c-2.32,3.707-4.799,7.29-7.442,10.768
		c-0.063,1.19-0.924,1.694-1.845,2.147c-1.68,1.588-3.539,3.017-4.592,5.162c-1.232,1.068-2.362,2.271-3.887,2.953
		c-4.075,3.231-8.621,5.74-13.227,8.054c-2.704,1.358-5.844,1.85-8.788,2.73c-0.245,0.436-0.565,0.367-0.91,0.137
		c-4.461,0.325-8.922,0.708-13.368-0.187c-10.145-2.04-16.914-10.092-18.152-21.45c-0.938-8.614,0.225-16.929,2.788-25.187
		c2.271-7.314,5.337-14.272,9.41-20.664c6.709-10.529,14.935-19.578,27.542-23.154c6.595-1.871,13.214-1.097,19.622,0.977
		c4.706,1.521,7.669,5.016,9.241,9.686C244.356,101.271,244.254,101.791,243.971,102.323z"/>
	<path fill-rule="evenodd" clip-rule="evenodd" fill="#FFFFFF" d="M393.752,171.544c-4.65,3.682-9.988,5.743-15.824,6.465
		c-3.773,0.468-6.947-0.589-8.682-4.353c-1.078-0.98-0.584-2.273-0.631-3.433c-0.113-2.748-0.072-2.752-2.613-1.584
		c-0.26,0.12-0.512,0.201-0.795,0.109c-5.143,2.8-10.082,5.978-15.645,7.972c-12.391,4.445-19.488-2.326-19.576-14.317
		c-0.039-5.479,1.375-10.777,4.674-15.082c2.977-3.887,6.91-7.018,11.273-9.434c10.1-5.588,21.152-8.435,32.258-11.08
		c3.064-0.73,4.918-2.145,4.723-5.501c0.518-0.864,0.283-2.057,1.201-2.745c1.377-2.814,1.809-5.907,2.137-8.926
		c0.629-5.797-0.785-7.696-6.234-9.508c-2.885,0.244-5.822,0.045-8.613,1.051c-3.205,0.895-5.912,2.559-7.006,5.814
		c-1.711,5.097-4.85,8.484-10.199,9.628c-0.512,0.466-1.049,0.384-1.598,0.081c-0.203,0-0.406,0-0.609,0
		c-0.549,0.302-1.086,0.385-1.596-0.081c-4.057-1.706-4.648-3.458-2.469-7.458c0.584-1.074,1.273-2.092,1.914-3.136
		c1.16-2.13,2.719-3.854,4.982-4.851c7.234-5.48,14.768-10.408,23.682-12.771c6.592-1.749,13.15-2.2,19.5,0.879
		c4.061,1.969,5.883,5.594,6.598,9.824c1.047,6.195-0.584,12.072-2.48,17.862c-4.254,12.979-8.602,25.929-12.889,38.897
		c-0.141,0.43-0.025,0.943-0.029,1.417c-0.027,0.122-0.055,0.245-0.08,0.367c-0.795,1.187-0.588,2.544-0.545,3.828
		c0.082,2.407,1.629,3.65,3.957,3.01c2.498-0.688,4.912-1.683,7.361-2.543c0.719,0.437,0.539,0.933,0.098,1.447
		c-0.719,1.401-1.436,2.803-2.154,4.204C397.051,169.507,395.768,170.907,393.752,171.544z"/>
	<path fill-rule="evenodd" clip-rule="evenodd" fill="#FEFEFE" d="M464.665,225.81c-1.314,2.984-2.107,6.122-2.764,9.301
		c-0.025,0.93,0.023,1.878-0.68,2.631c-1.334,1.717-0.375,4.649-2.514,5.705c-1.699,0.84-3.885,0.497-5.982,1.466
		c0.01-2.978,1.277-5.327,1.938-7.802c1.441-5.415,3.02-10.794,4.572-16.18c0.191-0.669,0.428-1.29-0.188-1.821
		c-0.781-0.676-1.414-0.104-1.988,0.354c-1.17,0.935-2.541,1.651-3.359,2.985c-0.816,1.413-1.879,2.575-3.367,3.304
		c-2.129,4.695-3.084,9.753-4.469,14.675c-0.596,2.117-1.201,3.791-3.873,3.385c-1.285-0.195-2.707,1.751-3.623,0.387
		c-0.469-0.697,0.617-2.407,0.938-3.676c1.621-6.461,4.338-12.62,5.305-19.262c-0.225-0.937-0.215-2.044-1.563-2.175
		c-0.758-0.229-1.537,1.37-2.168,0.128c-0.459-0.904-0.391-1.892,0.604-2.763c2.221-1.947,4.801-3.307,7.283-4.832
		c0.482-0.421,0.957-0.451,1.42,0.03c2.895,1.937,1.746,4.905,1.916,8.122c3.494-2.836,6.08-6.248,9.832-8.146
		c0.447-0.485,1.002-0.294,1.535-0.245c0.645,0.615,1.943,0.566,1.906,1.876c1.012,2.336,0.66,4.766,0.293,7.628
		c2.584-2.544,4.848-4.773,7.113-7.003c0.303-0.689,0.619-1.364,1.574-1.198c0.639-0.347,1.279-0.694,1.92-1.042
		c1.049-0.629,1.961-0.516,2.707,0.499c2.375,2.201,2.102,4.996,1.383,7.654c-1.32,4.882-2.924,9.687-4.414,14.522
		c-0.084,0.27-0.283,0.52-0.305,0.789c-0.086,1.023-0.701,2.41,0.092,2.984c1.02,0.739,1.705-0.73,2.523-1.257
		c0.541-0.348,1.004-0.817,1.508-1.239c1.252,1.693,0.893,2.95-0.672,4.079c-0.9,0.65-1.662,1.49-2.488,2.245
		c-0.416,0.753-0.881,1.448-1.84,1.563c-4.354,2.089-5.219,1.705-6.574-2.92c-0.322-0.246-0.322-0.49,0.004-0.733
		c1.1-5.851,3.176-11.423,4.875-17.103c0.215-0.719,0.223-1.498,0.408-2.229c0.154-0.615,0.109-1.173-0.418-1.514
		c-0.568-0.369-1.063,0.071-1.535,0.36c-1.828,1.117-3.146,2.794-4.672,4.245C466.418,224.618,465.67,225.341,464.665,225.81z"/>
	<path fill-rule="evenodd" clip-rule="evenodd" fill="#FEFEFE" d="M393.44,204.879c-3.531-2.116-7.393-1.031-11.125-1.105
		c-0.777-0.016-0.9,0.86-1.088,1.49c-1.26,4.254-2.512,8.51-3.785,12.76c-0.199,0.668-0.518,1.465,0.58,1.399
		c3.059-0.186,6.266,1.046,9.152-0.89c-0.035-0.632,0.35-0.961,0.861-1.202c0.201-0.308,0.506-0.591,0.586-0.929
		c0.373-1.536,1.563-0.897,2.301-0.713c1.186,0.296,0.445,1.178,0.209,1.806c-1.369,3.629-2.283,7.387-3.219,11.14
		c-0.879,0.537-1.744,0.712-2.578-0.084c0.516-4.752,0.254-5.029-4.738-5.043c-5.021-0.014-5.02-0.013-6.279,4.69
		c-0.635,2.373-1.291,4.74-1.92,7.115c-1.131,4.282-0.74,4.913,3.477,5.695c0.289,3.838-2.652,2.291-4.441,2.667
		c-2.844,0.365-5.686,0.372-8.527-0.005c-1.412,0-2.822,0-4.48,0c0.338-1.529,0.295-2.71,2.396-3.12
		c2.186-0.426,2.992-2.778,3.75-4.699c2.711-6.873,4.381-14.068,6.408-21.153c0.732-2.56,1.426-5.131,2.137-7.697
		c-0.223-0.331-0.268-0.691-0.117-1.053c0.811-1.968,0.463-3.236-1.941-3.374c-0.377-0.022-0.539-0.475-0.727-0.794
		c0.674-3.432,3.367-2.782,5.717-2.827c5.902-0.374,11.803-0.376,17.703,0.002c1.797,0,3.592,0,5.602,0
		c-0.939,3.401-1.889,6.604-2.682,9.846c-0.299,1.228-1.117,1.063-1.938,1.121c-1.58,0.114-0.756-1.145-1.016-1.783
		C393.2,207.088,393.631,205.958,393.44,204.879z"/>
	<path fill-rule="evenodd" clip-rule="evenodd" fill="#FEFEFE" d="M432.627,193.791c1.936-0.344,3.873-0.686,6.055-1.072
		c-2.225,7.568-4.395,14.949-6.564,22.33c0.191,0.818-0.119,1.488-0.621,2.103c-2.398,6.046-3.982,12.343-5.652,18.61
		c-0.18,0.67-0.428,1.679,0.254,2.113c0.842,0.537,1.578-0.239,2.246-0.751c0.65-0.499,1.283-1.022,1.977-1.579
		c1.246,1.744,0.404,2.918-0.639,4.056c-0.689,1.259-1.561,2.32-3.008,2.755c-1.303,0.782-2.607,1.565-3.91,2.349
		c-0.637,0.501-1.27,0.546-1.893-0.022c-0.818-0.935-1.635-1.867-2.451-2.801c-0.555-0.88-0.547-1.758,0.008-2.634
		c3.457-11.909,6.873-23.83,10.428-35.709c0.402-1.346,0.248-2.756,0.914-4.072c0.471-0.932-0.008-1.882-1.281-1.983
		c-2.941-0.236-1.568-1.712-0.873-2.998C429.258,194.046,430.866,193.365,432.627,193.791z"/>
	<path fill-rule="evenodd" clip-rule="evenodd" fill="#FEFDFE" d="M506.215,211.667c3.781,1.956,4.219,2.816,3.193,6.271
		c-0.285,1.456-1.363,2.155-2.59,2.714c-2.039-0.261-1.941-2.568-3.475-3.576c-1.855-1.218-2.965-1.137-4.357,0.23
		c-1.105,2.411-0.246,4.267,1.592,5.909c0.678,0.606,1.459,1.174,1.74,2.125c0.621,0.705,1.26,1.394,1.857,2.116
		c3.076,3.709,2.416,9.095-1.145,12.472c-3.088,2.931-6.4,4.887-10.787,4.835c-4.365-0.051-6.166-1.898-5.857-6.309
		c0.281-1.632,1.375-2.486,2.848-2.982c1.787-0.649,1.705,1.074,2.361,1.86c1.521,1.213,2.852,2.776,5.047,2.756
		c1.242-0.241,2.049-0.941,2.32-2.204c-0.143-0.992,0.186-2.066-0.51-2.964c-0.148-2.068-2.25-2.524-3.248-3.906
		c-1.287-1.78-2.754-3.433-4.143-5.141c-0.602-1.102-0.506-2.217-0.061-3.338c1.598-6.029,5.789-9.306,11.566-10.896
		C503.788,211.125,505.004,211.07,506.215,211.667z"/>
	<path fill-rule="evenodd" clip-rule="evenodd" fill="#FEFDFE" d="M408.438,211.664c2.979,1.411,3.012,3.866,2.16,6.493
		c-1.68,5.195-3.471,10.355-5.199,15.535c-0.27,0.807-0.52,1.632-0.648,2.47c-0.09,0.596-0.445,1.376,0.377,1.757
		c0.586,0.271,1.055-0.156,1.541-0.467c0.93-0.594,1.861-2.54,2.764-1.523c1.246,1.403-0.021,2.895-1.377,4.017
		c-1.867,1.545-3.473,3.382-5.797,4.367c-2.566,1.089-4.795-0.02-4.99-2.8c-0.123-1.748,0.053-3.45,0.707-5.203
		c1.936-5.19,3.596-10.484,5.332-15.749c0.262-0.794,0.561-1.729-0.281-2.363c-0.783-0.591-1.383,0.246-2.064,0.459
		c-0.607,0.189-1.262,1.337-1.836,0.168c-0.395-0.801-0.535-1.698,0.439-2.528c2.287-1.946,4.863-3.366,7.557-4.62
		C407.557,211.168,407.995,211.165,408.438,211.664z"/>
	<path fill-rule="evenodd" clip-rule="evenodd" fill="#FAFAFC" d="M408.717,197.5c1.014-0.997,1.451-2.573,3.229-2.804
		c1.205-0.156,2.123-2.391,3.617-0.035c1.357,2.141,2.625,3.994,0.572,6.313c-1.096,1.236-2.684,1.779-3.939,2.77
		c-1.316,1.039-1.461-0.8-2.316-0.762C408.793,201.304,407.372,199.696,408.717,197.5z"/>
	<path fill-rule="evenodd" clip-rule="evenodd" fill="#2A2C77" d="M231.826,105.882c2.023,3.305,0.798,7.152-3.262,10.238
		c-1.55,2.041-3.795,3.456-5.125,5.695c-5.984,4.933-12.119,9.582-20.602,10.962c3.076-6.653,6.121-12.798,10.897-17.923
		c1.858-1.311,3.192-3.192,4.989-4.57c2.099-2.551,4.672-4.244,8.061-4.473C228.466,105.693,230.144,105.958,231.826,105.882z"/>
	<path fill-rule="evenodd" clip-rule="evenodd" fill="#26266A" d="M223.439,121.816c0.81-2.707,3.15-4.037,5.125-5.695
		C227.63,118.715,225.374,120.121,223.439,121.816z"/>
	<path fill-rule="evenodd" clip-rule="evenodd" fill="#27276C" d="M218.723,110.285c-1.407,1.803-2.656,3.779-4.989,4.571
		C215.18,113.093,216.357,111.041,218.723,110.285z"/>
	<path fill-rule="evenodd" clip-rule="evenodd" fill="#252467" d="M231.826,105.882c-1.691,0.721-3.374,0.803-5.043-0.07
		C228.476,105.025,230.153,105.31,231.826,105.882z"/>
	<path fill-rule="evenodd" clip-rule="evenodd" fill="#2A2C77" d="M352.6,164.092c-2.873-0.501-4.076-2.65-4.533-5.126
		c-0.703-3.828,0.146-7.39,2.742-10.422c1.52-0.698,2.547-1.906,3.402-3.293c5.371-4.387,11.846-6.434,18.262-8.594
		c2.199-0.74,4.436-1.375,6.934-2.145c-2.145,7.248-4.182,14.293-6.361,21.294c-0.277,0.893-1.152,1.855-2.002,2.269
		c-4.385,2.134-8.379,5.158-13.348,5.986C355.997,163.857,354.299,164.253,352.6,164.092z"/>
</g>
</svg>
